<svg xmlns="http://www.w3.org/2000/svg" version="1.1" xmlns:xlink="http://www.w3.org/1999/xlink" xmlns:svgjs="http://svgjs.dev/svgjs" width="100%" height="100%" viewBox="0 0 1000 600"><rect width="1000" height="600" x="0" y="0" fill="#1a3e61"/><g><circle r="166.66666666666666" cx="266.89387003580725" cy="260.8284066220034" fill="#1a3e61" transform="matrix(1.7375709175782335,0,0,1.7375709175782328,36.25299416048159,-153.20781866334733)"/><path d="M85.49218980247605 204.40860590214467L85.49218980247605 230.8120823195513L113.47118230240284 230.8120823195513L111.10790817862261 245.67082882193964L85.49218980247605 245.67082882193964L85.49218980247605 293.3981004941447Q85.49218980247605 308.6643080523572 88.12710463013906 314.61323946739026Q90.76201945780207 320.58933495281144 100.1607878121464 320.58933495281144L100.1607878121464 320.58933495281144Q105.43061746747239 320.58933495281144 110.53746270046875 318.44337339213746L110.53746270046875 318.44337339213746L115.61714386307682 329.5806422513316Q113.25386973929659 331.91675230472356 107.00613354999254 333.87256537267956Q100.75839736068852 335.8283784406357 95.65155212769216 335.8283784406357L95.65155212769216 335.8283784406357Q78.45669557191192 335.8283784406357 73.15970184619763 326.2666256639617Q67.88987219087161 316.6777088168993 67.88987219087161 294.56615552084077L67.88987219087161 294.56615552084077L67.88987219087161 245.67082882193964L51.07531262052728 245.67082882193964L53.03112568848332 231.9801373462473L67.88987219087161 230.8120823195513L68.86777872484964 209.2981385720348L85.49218980247605 204.40860590214467ZM136.34332956933326 245.10038334378575Q141.4230107319413 237.4672795646795 150.52297431201458 232.9580438802253Q159.62293789208786 228.47597226615935 171.84676956681315 228.47597226615935Q184.07060124153844 228.47597226615935 192.38280678035164 233.14819237294327Q200.69501231916485 237.8475765501154 204.60663845507693 246.26843837048173L204.60663845507693 246.26843837048173Q211.45198419292308 261.31733336558796 211.45198419292308 283.23873816892865L211.45198419292308 283.23873816892865Q211.45198419292308 304.345220860621 201.67291885314287 319.0138188702913L201.67291885314287 319.0138188702913Q196.5932376905348 326.8370711421155 187.49327411046153 331.34630682656973Q178.39331053038825 335.8283784406357 166.169478855663 335.8283784406357Q153.94564718093767 335.8283784406357 145.63344164212447 331.15615833385175Q137.32123610331126 326.45677415667956 133.4096099673992 317.84576384359536L133.4096099673992 317.84576384359536Q126.564264229553 302.9870173412071 126.564264229553 281.0656125378664L126.564264229553 281.0656125378664Q126.564264229553 259.95912984617405 136.34332956933326 245.10038334378575L136.34332956933326 245.10038334378575ZM186.32521908376555 251.15797104037185Q183.66314018571427 248.0341029457198 179.18106857164832 246.07828987776375Q174.6718328871941 244.12247680980775 168.31544041633697 244.12247680980775Q161.9590479454798 244.12247680980775 157.47697633141385 246.45858686319966Q152.96774064695964 248.79469691659162 150.6316305935677 252.02722129279678Q148.26835646978748 255.2597456690019 147.1003014430915 261.12718487287L147.1003014430915 261.12718487287Q145.33463686785342 269.92834367867226 145.33463686785342 280.08770600388834Q145.33463686785342 290.2742323994928 145.7420979236776 295.0551087878298Q146.1223949091135 299.86314924655505 147.58925471008052 304.9428304091631Q149.05611451104755 310.02251157177113 151.79968562026366 313.1463796664232L151.79968562026366 313.1463796664232Q157.6671248241318 320.1818738969873 169.782300217304 320.1818738969873L169.782300217304 320.1818738969873Q176.0572004769963 320.1818738969873 180.53927209106223 317.84576384359536Q185.04850777551647 315.5096537902034 187.3846178289084 312.2771294139983Q189.74789195268863 309.0446050377932 190.91594697938461 303.1771658339251L190.91594697938461 303.1771658339251Q192.6816115546227 294.3760070281228 192.6816115546227 284.2166447029067Q192.6816115546227 274.03011830730225 192.27415049879852 269.24924191896525Q191.89385351336264 264.44120146024 190.42699371239559 259.36152029763196Q188.96013391142856 254.28183913502383 186.32521908376555 251.15797104037185ZM229.0543018045275 276.77368941651844L275.9938154354726 276.77368941651844L275.9938154354726 291.4422874261887L229.0543018045275 291.4422874261887L229.0543018045275 276.77368941651844ZM355.7746901658463 234.72370845546337L355.7746901658463 234.72370845546337Q355.9920027289526 234.72370845546337 356.37229971438853 234.53355996274544L356.37229971438853 234.53355996274544L355.7746901658463 229.4538788001374L355.7746901658463 187.78419482451827L373.3770077774508 185.82838175656224L373.3770077774508 305.32312739459906L374.95252385997094 332.51436185326565L360.6642228357365 334.47017492122177L358.5182612750625 322.54514802076756L357.73050323380244 322.54514802076756Q345.9956248260661 335.8283784406357 329.588526311546 335.8283784406357Q313.1542637266375 335.8283784406357 303.3751983868573 324.2021563144525Q293.59613304707705 312.57593418826934 293.59613304707705 282.8312771131044L293.59613304707705 282.8312771131044Q293.59613304707705 270.71610171993234 296.3397041562932 260.9370363801521Q299.056111195121 251.15797104037185 303.3751983868573 245.29053183650367Q307.66712150820524 239.42309263263556 313.3444122193555 235.51146649672344L313.3444122193555 235.51146649672344Q323.31362605185365 228.47597226615935 335.64611400813203 228.47597226615935Q347.95143789402215 228.47597226615935 355.7746901658463 234.72370845546337ZM337.41177858337016 244.12247680980775L337.41177858337016 244.12247680980775Q332.1147848576558 244.12247680980775 328.3933072144617 245.37202404766853Q324.6989936416558 246.64873535591764 320.78736750574376 250.1800645063938L320.78736750574376 250.1800645063938Q312.36650568537743 257.81316828550007 312.36650568537743 281.17426881941947Q312.36650568537743 304.535369353339 317.7449916222566 312.3586216251631Q323.12347755913567 320.1818738969873 335.0485044595899 320.1818738969873L335.0485044595899 320.1818738969873Q341.7037017047181 320.1818738969873 347.3809924158683 317.16666208388835Q353.0582831270185 314.12428620040123 355.7746901658463 310.62012112031334L355.7746901658463 310.62012112031334L355.7746901658463 249.5824549578517Q348.16875045712834 244.12247680980775 337.41177858337016 244.12247680980775ZM407.60373646668165 245.10038334378575Q412.71058169967796 237.4672795646795 421.7833812093629 232.9580438802253Q430.88334478943625 228.47597226615935 443.1071764641615 228.47597226615935Q455.3310081388868 228.47597226615935 463.64321367770003 233.14819237294327Q471.9554192165132 237.8475765501154 475.8670453524253 246.26843837048173L475.8670453524253 246.26843837048173Q482.71239109027147 261.31733336558796 482.71239109027147 283.23873816892865L482.71239109027147 283.23873816892865Q482.71239109027147 304.345220860621 472.9333257504911 319.0138188702913L472.9333257504911 319.0138188702913Q467.8536445878832 326.8370711421155 458.75368100780986 331.34630682656973Q449.65371742773664 335.8283784406357 437.42988575301126 335.8283784406357Q425.206054078286 335.8283784406357 416.89384853947286 331.15615833385175Q408.5816430006596 326.45677415667956 404.6700168647476 317.84576384359536L404.6700168647476 317.84576384359536Q397.8246711269014 302.9870173412071 397.8246711269014 281.0656125378664L397.8246711269014 281.0656125378664Q397.8246711269014 259.95912984617405 407.60373646668165 245.10038334378575L407.60373646668165 245.10038334378575ZM457.58562598111394 251.15797104037185Q454.9507111534509 248.0341029457198 450.4414754689967 246.07828987776375Q445.95940385493077 244.12247680980775 439.6030113840736 244.12247680980775Q433.2466189132165 244.12247680980775 428.73738322876227 246.45858686319966Q424.22814754430806 248.79469691659162 421.892037490916 252.02722129279678Q419.55592743752413 255.2597456690019 418.36070834043994 261.12718487287L418.36070834043994 261.12718487287Q416.6222078355901 269.92834367867226 416.6222078355901 280.08770600388834Q416.6222078355901 290.2742323994928 417.00250482102604 295.0551087878298Q417.38280180646177 299.86314924655505 418.84966160742886 304.9428304091631Q420.31652140839594 310.02251157177113 423.060092517612 313.1463796664232L423.060092517612 313.1463796664232Q428.92753172148014 320.1818738969873 441.0698711850406 320.1818738969873L441.0698711850406 320.1818738969873Q447.3176073743447 320.1818738969873 451.8268430587989 317.84576384359536Q456.30891467286483 315.5096537902034 458.67218879664495 312.2771294139983Q461.008298850037 309.0446050377932 462.17635387673295 303.1771658339251L462.17635387673295 303.1771658339251Q463.94201845197097 294.3760070281228 463.94201845197097 284.2166447029067Q463.94201845197097 274.03011830730225 463.56172146653523 269.24924191896525Q463.154260410711 264.44120146024 461.6874006097439 259.36152029763196Q460.22054080877695 254.28183913502383 457.58562598111394 251.15797104037185Z " fill="#ffff" transform="matrix(1.7375709175782335,0,0,1.7375709175782328,36.25299416048159,-153.20781866334733)"/><path d="MNaN 260.828380098599 " fill="#00000" transform="matrix(1.7375709175782335,0,0,1.7375709175782328,36.25299416048159,-153.20781866334733)"/></g></svg>